<?xml version="1.0" standalone="no"?>
<!DOCTYPE svg PUBLIC "-//W3C//DTD SVG 20010904//EN"
 "http://www.w3.org/TR/2001/REC-SVG-20010904/DTD/svg10.dtd">
<svg version="1.0" xmlns="http://www.w3.org/2000/svg"
 width="2356.000000pt" height="707.000000pt" viewBox="0 0 2356.000000 707.000000"
 preserveAspectRatio="xMidYMid meet">

<g transform="translate(0.000000,707.000000) scale(0.100000,-0.100000)"
fill="#000000" stroke="none">
<path d="M15635 6916 c-110 -18 -160 -33 -228 -67 -140 -71 -208 -182 -252
-411 -29 -153 -376 -2982 -372 -3028 4 -32 12 -51 32 -67 24 -22 35 -23 163
-23 260 0 352 51 398 222 8 29 84 640 169 1358 85 718 162 1338 171 1377 21
100 42 116 146 111 94 -4 118 -22 142 -106 8 -31 119 -552 246 -1157 127 -605
240 -1131 252 -1170 51 -176 122 -278 229 -327 185 -86 544 -103 787 -38 206
56 283 148 366 438 13 48 138 577 276 1176 138 599 260 1106 270 1126 23 45
55 60 130 60 72 0 104 -11 125 -44 18 -27 9 43 210 -1736 63 -558 120 -1037
126 -1065 6 -27 23 -72 38 -99 51 -95 138 -126 357 -126 130 0 144 2 174 23
19 12 37 34 40 48 7 24 -305 2922 -331 3074 -22 130 -71 248 -135 324 -34 40
-149 95 -244 116 -101 22 -407 31 -525 16 -300 -40 -419 -129 -509 -382 -20
-55 -143 -571 -296 -1234 -144 -627 -268 -1155 -277 -1173 -18 -38 -44 -47
-125 -46 -77 2 -104 20 -122 87 -8 28 -121 545 -251 1147 -130 602 -247 1136
-261 1185 -52 183 -128 301 -227 352 -101 51 -185 65 -407 69 -139 2 -231 -1
-285 -10z"/>
<path d="M1985 6904 c-77 -2 -286 -8 -464 -14 -354 -12 -366 -14 -398 -73 -17
-30 -18 -124 -18 -1707 l1 -1675 21 -41 c42 -79 51 -80 773 -93 673 -12 951 2
1256 64 292 59 461 143 620 307 95 98 146 171 213 306 94 187 157 417 198 717
22 166 25 758 5 930 -19 156 -57 337 -93 446 -41 127 -147 339 -210 422 -170
225 -488 353 -984 397 -126 11 -680 19 -920 14z m929 -578 c225 -35 339 -93
432 -218 124 -167 183 -390 206 -780 23 -403 -24 -785 -127 -1030 -93 -221
-218 -334 -427 -387 -146 -38 -219 -43 -608 -48 -452 -5 -636 4 -657 32 -11
16 -13 215 -11 1221 2 661 7 1206 11 1210 18 19 127 22 587 19 395 -2 505 -5
594 -19z"/>
<path d="M6053 6150 c-529 -45 -822 -206 -997 -550 -143 -280 -205 -671 -176
-1119 29 -457 138 -761 339 -943 222 -200 618 -304 1091 -284 340 14 551 60
762 168 287 146 454 444 530 948 21 136 17 656 -5 800 -35 227 -102 432 -189
577 -123 209 -374 339 -747 388 -140 19 -468 27 -608 15z m531 -544 c313 -70
436 -316 436 -871 0 -300 -34 -496 -115 -662 -88 -179 -205 -244 -495 -274
-143 -14 -354 -6 -475 20 -268 56 -371 178 -432 511 -25 138 -25 575 0 710 22
116 68 258 107 326 32 54 102 126 160 161 51 32 179 72 278 88 113 19 437 13
536 -9z"/>
<path d="M9445 6140 c-115 -4 -289 -15 -385 -24 -96 -9 -200 -19 -230 -21
-201 -19 -349 -37 -373 -47 -60 -24 -57 53 -57 -1368 l0 -1302 29 -29 29 -29
236 0 c131 0 246 4 261 10 57 22 55 -14 56 1132 1 579 4 1064 8 1078 10 35 57
48 219 60 179 13 555 13 662 0 110 -13 203 -42 263 -80 38 -24 54 -43 78 -94
62 -133 61 -124 68 -1106 6 -876 6 -896 26 -930 38 -64 63 -70 307 -70 215 0
217 0 245 24 l28 24 0 994 c0 908 -2 1003 -18 1107 -42 263 -120 405 -282 512
-198 130 -565 180 -1170 159z"/>
<path d="M12645 6144 c-403 -29 -547 -65 -647 -160 -85 -80 -158 -220 -166
-319 -4 -61 -3 -65 26 -94 37 -38 67 -39 262 -12 74 11 191 25 260 32 166 15
668 15 790 0 156 -21 247 -74 287 -170 25 -58 42 -178 43 -288 0 -130 2 -128
-170 -137 -383 -20 -864 -63 -1082 -96 -323 -49 -401 -91 -473 -254 -102 -230
-114 -667 -26 -916 89 -253 228 -349 596 -409 311 -52 903 -55 1305 -6 381 46
381 46 414 76 l31 27 0 899 c0 943 -3 1035 -46 1247 -27 134 -69 238 -126 314
-109 142 -252 209 -533 248 -100 15 -624 27 -745 18z m850 -1934 c0 -332 -5
-363 -59 -385 -71 -30 -191 -39 -496 -40 -334 0 -422 10 -522 61 -96 48 -133
153 -126 350 6 149 27 203 86 227 56 22 214 45 442 62 269 20 304 21 505 21
l170 -1 0 -295z"/>
<path d="M20170 6098 c-33 -18 -52 -56 -46 -94 2 -18 110 -257 240 -531 129
-275 244 -527 255 -559 42 -127 37 -200 -24 -349 -18 -44 -146 -314 -285 -600
-277 -569 -279 -576 -225 -623 28 -24 29 -24 214 -20 200 5 238 13 314 65 21
14 53 48 73 74 19 26 124 237 233 468 110 232 211 438 226 457 47 62 99 78
259 82 237 7 279 -7 348 -108 20 -30 117 -234 215 -453 100 -225 193 -418 213
-445 86 -113 168 -142 405 -142 164 0 208 11 225 56 6 15 8 36 4 48 -4 11
-112 250 -242 531 -253 551 -277 607 -297 704 -25 118 -32 101 329 838 253
517 257 527 212 580 -24 28 -25 28 -167 31 -230 6 -325 -21 -410 -116 -25 -27
-58 -78 -76 -113 -343 -699 -375 -762 -421 -809 -61 -63 -111 -74 -311 -68
-178 4 -207 15 -257 98 -19 30 -110 226 -204 435 -94 209 -186 403 -206 432
-41 59 -92 98 -161 120 -67 21 -397 30 -433 11z"/>
</g>
</svg>
